# xmcd CD database file
#
# Track frame offsets:
#	200
#	13507
#	36537
#	52602
#	66237
#	82825
#	98012
#	111977
#	126047
#	141037
#	159940
#	172695
#	185997
#	202192
#
# Disc length: 2909 seconds
#
# Revision: 1
# Processed by: cddbd v1.4PL0 Copyright (c) Steve Scherf et al.
# Submitted via: CDex 1.50Beta7
#
DISCID=b50b5b0e
DTITLE=Tom Ball and Kenny Sultan - Double Vision
DYEAR=1996
DGENRE=Blues
TTITLE0=Perfect Woman
TTITLE1=Your Shoes Don't Fit My Feet
TTITLE2=No Money, No Honey
TTITLE3=Automobile Mechanic
TTITLE4=I Feel Alright Now
TTITLE5=Sweet Georgia Brown ~ Bill Bailey
TTITLE6=Sweet Temptation
TTITLE7=Sloppy Joe
TTITLE8=Television
TTITLE9=Roll of the Tumblin' Dice
TTITLE10=Wing and a Prayer
TTITLE11=Ride That Train
TTITLE12=Back to California
TTITLE13=Who Drank My Beer¿
EXTD=YEAR: 1996
EXTT0=
EXTT1=
EXTT2=
EXTT3=
EXTT4=
EXTT5=
EXTT6=
EXTT7=
EXTT8=
EXTT9=
EXTT10=
EXTT11=
EXTT12=
EXTT13=
PLAYORDER=
